name ./resultDataOpenSim/trcMotMarkerGrf/sub10/grf-02-03.mot
datacolumns 19
datarows 12
range 0.95200000 0.99600000
endheader

                time	     ground_force_vx	     ground_force_vy	     ground_force_vz	     ground_force_px	     ground_force_py	     ground_force_pz	   l_ground_force_vx	   l_ground_force_vy	   l_ground_force_vz	   l_ground_force_px	   l_ground_force_py	   l_ground_force_pz	     ground_torque_x	     ground_torque_y	     ground_torque_z	   l_ground_torque_x	   l_ground_torque_y	   l_ground_torque_z	
          0.95200000	          0.00000000	          0.00000000	          0.00000000	          0.00000000	          0.00000000	          0.00000000	        -17.82475462	        396.70296926	         18.87546034	          0.07661261	         -0.02500000	         -0.07763991	          0.00000000	          0.00000000	          0.00000000	          0.00000000	          0.66719921	          0.00000000	
          0.95600000	          0.00000000	          0.00000000	          0.00000000	          0.00000000	          0.00000000	          0.00000000	        -15.39944745	        393.12665342	         18.41463181	          0.07736541	         -0.02500000	         -0.07720687	          0.00000000	          0.00000000	          0.00000000	          0.00000000	          0.62895340	          0.00000000	
          0.96000000	          0.00000000	          0.00000000	          0.00000000	          0.00000000	          0.00000000	          0.00000000	        -12.87557363	        389.77428172	         18.10442702	          0.07792658	         -0.02500000	         -0.07694349	          0.00000000	          0.00000000	          0.00000000	          0.00000000	          0.57930023	          0.00000000	
          0.96400000	          0.00000000	          0.00000000	          0.00000000	          0.00000000	          0.00000000	          0.00000000	        -10.28024241	        386.73137043	         17.95063233	          0.07829456	         -0.02500000	         -0.07684836	          0.00000000	          0.00000000	          0.00000000	          0.00000000	          0.51949628	          0.00000000	
          0.96800000	          0.00000000	          0.00000000	          0.00000000	          0.00000000	          0.00000000	          0.00000000	         -7.63563146	        384.16590285	         17.94468600	          0.07852447	         -0.02500000	         -0.07687671	          0.00000000	          0.00000000	          0.00000000	          0.00000000	          0.45123155	          0.00000000	
          0.97200000	          0.00000000	          0.00000000	          0.00000000	          0.00000000	          0.00000000	          0.00000000	         -4.95187836	        382.31924250	         18.06917029	          0.07871828	         -0.02500000	         -0.07694614	          0.00000000	          0.00000000	          0.00000000	          0.00000000	          0.37657087	          0.00000000	
          0.97600000	          0.00000000	          0.00000000	          0.00000000	          0.00000000	          0.00000000	          0.00000000	         -2.22317751	        381.45972548	         18.30885931	          0.07898866	         -0.02500000	         -0.07696597	          0.00000000	          0.00000000	          0.00000000	          0.00000000	          0.29771067	          0.00000000	
          0.98000000	          0.00000000	          0.00000000	          0.00000000	          0.00000000	          0.00000000	          0.00000000	          0.56406830	        381.78556462	         18.66185730	          0.07939665	         -0.02500000	         -0.07689470	          0.00000000	          0.00000000	          0.00000000	          0.00000000	          0.21662336	          0.00000000	
          0.98400000	          0.00000000	          0.00000000	          0.00000000	          0.00000000	          0.00000000	          0.00000000	          3.41868186	        383.37478680	         19.13546253	          0.07993546	         -0.02500000	         -0.07674945	          0.00000000	          0.00000000	          0.00000000	          0.00000000	          0.13465762	          0.00000000	
          0.98800000	          0.00000000	          0.00000000	          0.00000000	          0.00000000	          0.00000000	          0.00000000	          6.34273323	        386.21654870	         19.73250065	          0.08053300	         -0.02500000	         -0.07658288	          0.00000000	          0.00000000	          0.00000000	          0.00000000	          0.05210125	          0.00000000	
          0.99200000	          0.00000000	          0.00000000	          0.00000000	          0.00000000	          0.00000000	          0.00000000	          9.33227379	        390.26500329	         20.43759769	          0.08109983	         -0.02500000	         -0.07648116	          0.00000000	          0.00000000	          0.00000000	          0.00000000	         -0.03225105	          0.00000000	
          0.99600000	          0.00000000	          0.00000000	          0.00000000	          0.00000000	          0.00000000	          0.00000000	         12.36741879	        395.51659391	         21.20618217	          0.08158569	         -0.02500000	         -0.07652041	          0.00000000	          0.00000000	          0.00000000	          0.00000000	         -0.12131952	          0.00000000	
